<svg width="17" height="17" viewBox="0 0 17 17" fill="none" xmlns="http://www.w3.org/2000/svg">
<path d="M8.5 0C3.81313 0 0 3.81302 0 8.49996C0 13.1869 3.81313 17 8.5 17C13.1869 17 17 13.1869 17 8.49996C17 3.81302 13.187 0 8.5 0ZM13.3808 7.06424L8.04073 12.4043C7.81367 12.6314 7.51184 12.7564 7.19076 12.7564C6.86968 12.7564 6.56785 12.6314 6.34079 12.4043L3.61915 9.68271C3.39209 9.45565 3.26703 9.15382 3.26703 8.83274C3.26703 8.51157 3.39209 8.20974 3.61915 7.98268C3.84612 7.75562 4.14796 7.63056 4.46912 7.63056C4.7902 7.63056 5.09212 7.75562 5.3191 7.98277L7.19067 9.85425L11.6807 5.36421C11.9078 5.13715 12.2096 5.01218 12.5307 5.01218C12.8518 5.01218 13.1536 5.13715 13.3807 5.36421C13.8495 5.83306 13.8495 6.59557 13.3808 7.06424Z" fill="#A0A0A0"/>
</svg>
